<svg xmlns="http://www.w3.org/2000/svg" xmlns:xlink="http://www.w3.org/1999/xlink" width="768" height="157.963" viewBox="0 0 768 157.963">
  <defs>
    <linearGradient id="linear-gradient" x1="0.782" y1="0.823" x2="0.013" y2="0.834" gradientUnits="objectBoundingBox">
      <stop offset="0" stop-color="#732ea4"/>
      <stop offset="0.369" stop-color="#a640b2"/>
      <stop offset="1" stop-color="#e21d78"/>
    </linearGradient>
    <linearGradient id="linear-gradient-2" x1="0.096" y1="0.21" x2="0.997" y2="1.01" gradientUnits="objectBoundingBox">
      <stop offset="0" stop-color="#ff1772"/>
      <stop offset="1" stop-color="#ff3d3d"/>
    </linearGradient>
    <linearGradient id="linear-gradient-3" x1="0.093" y1="0.218" x2="0.874" y2="0.843" gradientUnits="objectBoundingBox">
      <stop offset="0.001" stop-color="#7a2282"/>
      <stop offset="1" stop-color="#a745ad"/>
    </linearGradient>
  </defs>
  <g id="Grupo_20153" data-name="Grupo 20153" transform="translate(67)">
    <rect id="Rectángulo_9955" data-name="Rectángulo 9955" width="768" height="19" transform="translate(-67)" fill="url(#linear-gradient)"/>
    <path id="Trazado_85461" data-name="Trazado 85461" d="M1212.557,558.734l2.479,6.362a17.883,17.883,0,0,1-10.494,2.892,18.166,18.166,0,0,1-6.28-.95,11.392,11.392,0,0,1-3.8-2.107,7.393,7.393,0,0,1-1.9-3.387,17.036,17.036,0,0,1-.743-3.512q-.083-1.281-.083-3.76V532.211h-5.867l.826-6.032a8.052,8.052,0,0,0,5.867-2.768,24.486,24.486,0,0,0,3.636-6.9h5.371v8.758h11.967l-.826,6.941h-11.141v21.731q0,3.637,1.322,5.082a5.277,5.277,0,0,0,4.09,1.446A10.559,10.559,0,0,0,1212.557,558.734Zm44.7.613a2.734,2.734,0,0,1-.413-1.776v-32.39H1242.71l-.8,6.788.395-.012,2.644.165a2.251,2.251,0,0,1,1.611.62,2.923,2.923,0,0,1,.455,1.859v17.434a7.948,7.948,0,0,1-2.355,5.784,8.349,8.349,0,0,1-6.238,2.4q-3.885,0-5.123-2.231a13.945,13.945,0,0,1-1.239-6.61V525.181h-14.269l-.8,6.876,3.175.065q2.064.083,2.066,2.313v19.087q0,14.3,12.807,14.295,8.84,0,13.385-6.445a13.921,13.921,0,0,0,2.59,3.486c2.067,1.578,4.009,3.041,7.748,3.041,6.951,0,8.905-3.514,8.905-3.514l-3.124-5.32a5.287,5.287,0,0,1-4.1,1.6A5.157,5.157,0,0,1,1257.257,559.347Z" transform="translate(-944.869 -425.512)" fill="url(#linear-gradient-2)"/>
    <path id="Trazado_85460" data-name="Trazado 85460" d="M1527.031,540.429a38.671,38.671,0,0,1,15.286,3.057v30.655q0,7.024-.165,9.006-.743,9.172-5.288,13.469t-14.212,4.3q-9.667,0-15.12-2.726V586.7l7.849-.661v3.966a2.964,2.964,0,0,0,2.066,3.015,16.55,16.55,0,0,0,5.7.785q5.287,0,7.437-3.181t2.148-8.965v-4.544q-3.966,4.628-10.99,4.627a16.509,16.509,0,0,1-7.56-1.652,12.747,12.747,0,0,1-5.082-4.462,24.2,24.2,0,0,1-3.553-13.22q0-10.823,5.866-16.4T1527.031,540.429Zm5.058,8.18a20.346,20.346,0,0,0-6.61-.991,8.945,8.945,0,0,0-7.726,3.718q-2.686,3.718-2.685,10.08,0,13.057,8.593,13.055a8.639,8.639,0,0,0,5.991-2.19,7.546,7.546,0,0,0,2.438-5.907Zm54.026,4.8a2.208,2.208,0,0,1,.8-3.085,2.219,2.219,0,1,1,2.239,3.831,2.457,2.457,0,0,1-1.145.3A2.133,2.133,0,0,1,1586.115,553.408Zm-6.618-6.618a2.31,2.31,0,0,0,1.144.3,2.216,2.216,0,0,0,1.941-1.144,2.248,2.248,0,0,0-.8-3.036,2.253,2.253,0,0,0-2.289,3.882Zm11.2,13.236a2.23,2.23,0,0,0-2.239,2.239A17.863,17.863,0,1,1,1570.59,544.4a2.239,2.239,0,0,0,0-4.478,22.342,22.342,0,1,0,22.341,22.342A2.23,2.23,0,0,0,1590.692,560.026Z" transform="translate(-1182.967 -442.948)" fill="url(#linear-gradient-3)"/>
  </g>
</svg>
