<svg id="undraw_mobile_login_ikmv" xmlns="http://www.w3.org/2000/svg" width="369" height="283.528" viewBox="0 0 369 283.528">
  <path id="Trazado_85462" data-name="Trazado 85462" d="M104.385,326.307l28.569-44.927L68.973,240.694,35.931,292.655l52.921,33.652Z" transform="translate(-19.42 -130.089)" fill="#f0f0f0"/>
  <path id="Trazado_85463" data-name="Trazado 85463" d="M388.267,582.245H317.5V568h70.767Zm-69.848-.919h68.929V568.919H318.419Z" transform="translate(-262.816 -372.012)" fill="#3f3d56"/>
  <ellipse id="Elipse_10364" data-name="Elipse 10364" cx="6" cy="5" rx="6" ry="5" transform="translate(110 198.066)" fill="#a443aa"/>
  <ellipse id="Elipse_10365" data-name="Elipse 10365" cx="3.5" cy="5" rx="3.5" ry="5" transform="translate(100 198.066)" fill="#a443aa"/>
  <ellipse id="Elipse_10366" data-name="Elipse 10366" cx="4.5" cy="5" rx="4.5" ry="5" transform="translate(85 198.066)" fill="#a443aa"/>
  <ellipse id="Elipse_10367" data-name="Elipse 10367" cx="4.5" cy="5" rx="4.5" ry="5" transform="translate(75 198.066)" fill="#a443aa"/>
  <ellipse id="Elipse_10368" data-name="Elipse 10368" cx="4" cy="5" rx="4" ry="5" transform="translate(61 198.066)" fill="#a443aa"/>
  <path id="Trazado_85464" data-name="Trazado 85464" d="M574.51,193.427V158.5h17.462v-17H506.5v85.472h73.065v-8.357a11.862,11.862,0,0,1,11.862-11.862h.545V193.427Z" transform="translate(-364.966 -141.5)" fill="#f0f0f0"/>
  <rect id="Rectángulo_9956" data-name="Rectángulo 9956" width="57" height="14" transform="translate(248 219.066)" fill="#a443aa"/>
  <rect id="Rectángulo_9957" data-name="Rectángulo 9957" width="83" height="12" transform="translate(233 161.066)" fill="#f0f0f0"/>
  <rect id="Rectángulo_9958" data-name="Rectángulo 9958" width="358" transform="translate(0 283.066)" fill="#3f3d56"/>
  <path id="Trazado_85465" data-name="Trazado 85465" d="M781.305,501.235H676.822A12.336,12.336,0,0,1,664.5,488.913V294.822A12.336,12.336,0,0,1,676.822,282.5H781.305a12.336,12.336,0,0,1,12.322,12.322V488.913A12.336,12.336,0,0,1,781.305,501.235ZM676.822,283.419a11.416,11.416,0,0,0-11.4,11.4V488.913a11.416,11.416,0,0,0,11.4,11.4H781.305a11.416,11.416,0,0,0,11.4-11.4V294.822a11.416,11.416,0,0,0-11.4-11.4Z" transform="translate(-450.361 -217.707)" fill="#3f3d56"/>
  <path id="Trazado_85466" data-name="Trazado 85466" d="M774.757,296.014a2.757,2.757,0,1,1,2.757-2.757A2.757,2.757,0,0,1,774.757,296.014Zm0-4.6a1.838,1.838,0,1,0,1.838,1.838A1.838,1.838,0,0,0,774.757,291.419Z" transform="translate(-508.461 -222.03)" fill="#3f3d56"/>
  <rect id="Rectángulo_9959" data-name="Rectángulo 9959" width="20.219" height="0.919" transform="translate(273.189 70.767)" fill="#3f3d56"/>
  <path id="Trazado_85467" data-name="Trazado 85467" d="M884.262,311.5v36.762A36.764,36.764,0,0,1,847.5,311.5Z" transform="translate(-549.267 -233.38)" fill="#a443aa"/>
  <path id="Trazado_85468" data-name="Trazado 85468" d="M795,503.961H681.5V310.5H795Zm-112.584-.919H794.084V311.419H682.419Z" transform="translate(-459.548 -232.84)" fill="#3f3d56"/>
  <ellipse id="Elipse_10369" data-name="Elipse 10369" cx="13" cy="12.5" rx="13" ry="12.5" transform="translate(297 87.066)" opacity="0.1"/>
  <circle id="Elipse_10370" data-name="Elipse 10370" cx="13" cy="13" r="13" transform="translate(294 88.066)" fill="#a443aa"/>
  <rect id="Rectángulo_9960" data-name="Rectángulo 9960" width="16" height="4" transform="translate(228 87.066)" fill="#3f3d56"/>
  <rect id="Rectángulo_9961" data-name="Rectángulo 9961" width="19" height="6" transform="translate(235 147.066)" fill="#3f3d56"/>
  <path id="Trazado_85469" data-name="Trazado 85469" d="M798.053,498.448H713.5V486.5h84.553Zm-83.634-.919h82.715v-10.11H714.419Z" transform="translate(-476.844 -327.963)" fill="#3f3d56"/>
  <rect id="Rectángulo_9962" data-name="Rectángulo 9962" width="83" height="10" transform="translate(233 198.066)" fill="#f0f0f0"/>
  <rect id="Rectángulo_9963" data-name="Rectángulo 9963" width="19" height="8" transform="translate(235 181.066)" fill="#3f3d56"/>
  <path id="Trazado_85470" data-name="Trazado 85470" d="M798.053,574.448H713.5V562.5h84.553Zm-83.634-.919h82.715v-10.11H714.419Z" transform="translate(-476.844 -369.039)" fill="#3f3d56"/>
  <path id="Trazado_85471" data-name="Trazado 85471" d="M800.4,626.367H742.5V613.5h57.9Zm-56.981-.919h56.062V614.419H743.419Z" transform="translate(-492.517 -396.603)" fill="#3f3d56"/>
  <path id="Trazado_85472" data-name="Trazado 85472" d="M881.688,497.1a4.6,4.6,0,0,1-8.138,2.927l0,0a4.595,4.595,0,1,1,8.01-4.012,0,0,0,0,0,0,0h0A4.7,4.7,0,0,1,881.688,497.1Z" transform="translate(-562.777 -331.206)" fill="#a443aa"/>
  <path id="Trazado_85473" data-name="Trazado 85473" d="M882.771,499.257a4.6,4.6,0,0,1-8.138,2.927l0,0a4.686,4.686,0,0,1-.129-1.084,4.6,4.6,0,0,1,8.138-2.927,0,0,0,0,0,0,0h0A4.69,4.69,0,0,1,882.771,499.257Z" transform="translate(-563.86 -333.368)" opacity="0.1"/>
  <ellipse id="Elipse_10371" data-name="Elipse 10371" cx="6.5" cy="5" rx="6.5" ry="5" transform="translate(310 163.066)" fill="#a443aa"/>
  <path id="Trazado_85474" data-name="Trazado 85474" d="M881.688,573.1a4.6,4.6,0,0,1-8.138,2.927l0,0a4.595,4.595,0,1,1,8.01-4.011,0,0,0,0,0,0,0h0A4.7,4.7,0,0,1,881.688,573.1Z" transform="translate(-562.777 -372.282)" fill="#a443aa"/>
  <path id="Trazado_85475" data-name="Trazado 85475" d="M882.771,575.257a4.6,4.6,0,0,1-8.138,2.927l0,0a4.684,4.684,0,0,1-.129-1.084,4.6,4.6,0,0,1,8.138-2.927.005.005,0,0,0,0,0h0A4.69,4.69,0,0,1,882.771,575.257Z" transform="translate(-563.86 -374.444)" fill="#a443aa" opacity="0.1"/>
  <ellipse id="Elipse_10372" data-name="Elipse 10372" cx="6.5" cy="4" rx="6.5" ry="4" transform="translate(310 200.066)" fill="#a443aa"/>
  <rect id="Rectángulo_9964" data-name="Rectángulo 9964" width="22" height="23" transform="translate(216 22.066)" fill="#f0f0f0"/>
  <path id="Trazado_85476" data-name="Trazado 85476" d="M863.014,214.529a5.514,5.514,0,1,1,5.514-5.514A5.514,5.514,0,0,1,863.014,214.529Zm0-10.11a4.6,4.6,0,1,0,4.6,4.6A4.6,4.6,0,0,0,863.014,204.419Z" transform="translate(-554.672 -175.009)" fill="#3f3d56"/>
  <path id="Trazado_85477" data-name="Trazado 85477" d="M591.448,380.448H579.5V368.5h11.948Zm-11.029-.919h10.109v-10.11H580.419Z" transform="translate(-404.42 -264.187)" fill="#3f3d56"/>
  <path id="Trazado_85478" data-name="Trazado 85478" d="M987.448,574.448H975.5V562.5h11.948Zm-11.028-.919h10.109v-10.11H976.419Z" transform="translate(-618.448 -369.039)" fill="#3f3d56"/>
  <path id="Trazado_85479" data-name="Trazado 85479" d="M488.5,395.07l2.05,1.1,6.977,3.76L508.793,406l6.564-12.178a9.891,9.891,0,0,0-4.018-13.413A13.138,13.138,0,0,0,496,382.493l0,0a13.158,13.158,0,0,0-2.47,3.251Z" transform="translate(-355.239 -269.772)" fill="#25282b"/>
  <path id="Trazado_85480" data-name="Trazado 85480" d="M345.166,541.318l-1.376,15.136-5.16.688-3.44-17.2Z" transform="translate(-181.161 -291.824)" fill="#ffb8b8"/>
  <path id="Trazado_85481" data-name="Trazado 85481" d="M536.294,716.809s6.536-3.44,7.912-.688c0,0-1.032,8.257,3.1,9.288s5.848,8.257,0,8.945-9.632-1.376-11.7-1.376,0-7.224,0-7.224Z" transform="translate(-380.201 -451.49)" fill="#25282b"/>
  <path id="Trazado_85482" data-name="Trazado 85482" d="M266.316,541.318l1.376,15.136,5.16.688,3.44-17.2Z" transform="translate(-143.937 -291.824)" fill="#ffb8b8"/>
  <path id="Trazado_85483" data-name="Trazado 85483" d="M464.654,716.809s-6.536-3.44-7.912-.688c0,0,1.032,8.257-3.1,9.288s-5.848,8.257,0,8.945,9.633-1.376,11.7-1.376,0-7.224,0-7.224Z" transform="translate(-334.363 -451.49)" fill="#25282b"/>
  <circle id="Elipse_10373" data-name="Elipse 10373" cx="8.944" cy="8.944" r="8.944" transform="translate(141.644 110.168)" fill="#ffb8b8"/>
  <path id="Trazado_85484" data-name="Trazado 85484" d="M464.067,418.251l7.224,11.353,8.6-.688,14.1,1.032s1.331-2.663,2.418-5.253a20.348,20.348,0,0,0,1.366-4.035c.344-2.408-4.472-4.816-4.472-4.816s-.189-.034-.506-.11c-.42-.1-1.066-.265-1.775-.506-1.6-.544-3.523-1.466-3.911-2.824-.688-2.408,4.472-5.848,4.472-5.848l-6.192-5.848s-5.5,7.641-12.182,9.381a10.662,10.662,0,0,1-1.177.241l-.058.01A9.159,9.159,0,0,0,464.067,418.251Z" transform="translate(-342.032 -281.594)" fill="#ffb8b8"/>
  <path id="Trazado_85485" data-name="Trazado 85485" d="M458.257,432.149l-3.784,3.1s-3.1,14.793-2.064,18.921-.344,7.912-.344,8.6-3.1,26.489-3.1,26.489-6.192,13.76.344,12.385,4.128-15.137,4.128-15.137l7.912-24.081v-20.3Z" transform="translate(-332.438 -298.588)" fill="#ffb8b8"/>
  <path id="Trazado_85486" data-name="Trazado 85486" d="M529.826,438.138l2.752,2.064,1.376,28.9,10.32,24.769s7.568,12.04,2.752,12.384-7.912-12.384-7.912-12.384l-9.288-23.737-1.376-23.049Z" transform="translate(-376.829 -301.825)" fill="#ffb8b8"/>
  <path id="Trazado_85487" data-name="Trazado 85487" d="M474.169,442.629s6.88,4.816,17.889,3.1c0,0,3.1,6.192,1.376,9.633s2.064,11.7,2.752,12.728,8.6,22.361,11.353,45.41,10.32,38.874,3.784,40.938-19.953,4.472-21.329,2.408-3.44-53.322-3.44-53.322l-3.784,19.609s5.16,33.37,1.376,34.058-27.521-1.376-26.833-5.5,7.568-25.8,7.568-25.8-.344-43.346,6.536-51.6c0,0,2.752-4.472-1.032-10.321s-3.44-15.137-3.44-15.137S469.7,448.822,474.169,442.629Z" transform="translate(-338.373 -304.252)" fill="#25282b"/>
  <path id="Trazado_85488" data-name="Trazado 85488" d="M282.913,279.862,288.7,292.6l1.376-.688-5.989-12.292Z" transform="translate(-152.907 -151.128)" fill="#25282b"/>
  <path id="Trazado_85489" data-name="Trazado 85489" d="M522.737,432.306l4.345,9.56,1.042-.093-.354-1.627-3.258-7.334C524.093,432.712,523.446,432.546,522.737,432.306Z" transform="translate(-373.742 -298.673)" fill="#25282b"/>
  <path id="Trazado_85490" data-name="Trazado 85490" d="M492.662,396.177a5.663,5.663,0,0,0,10.389,1.011c-4.352-5.69-.619-9.264,6.45-11.968a5.658,5.658,0,0,0-.609-6.275,13.182,13.182,0,0,0-10.785,3.55l0,0-5.022,9.316A5.636,5.636,0,0,0,492.662,396.177Z" transform="translate(-357.347 -269.775)" fill="#25282b"/>
  <ellipse id="Elipse_10374" data-name="Elipse 10374" cx="1.204" cy="2.064" rx="1.204" ry="2.064" transform="translate(144.052 118.08)" fill="#ffb8b8"/>
  <path id="Trazado_85491" data-name="Trazado 85491" d="M522.408,387.514l10.341,4.685,1.9-4.183a9.91,9.91,0,0,0-2-4.173l-7.118-3.223Z" transform="translate(-373.564 -270.738)" fill="#25282b"/>
  <ellipse id="Elipse_10375" data-name="Elipse 10375" cx="4.5" cy="4" rx="4.5" ry="4" transform="translate(169 200.066)" fill="#a443aa"/>
  <circle id="Elipse_10376" data-name="Elipse 10376" cx="3.003" cy="3.003" r="3.003" transform="translate(23.17 230.396)" fill="#ff6584"/>
  <rect id="Rectángulo_9965" data-name="Rectángulo 9965" width="0.919" height="34.194" transform="translate(40.427 249.051)" fill="#3f3d56"/>
  <circle id="Elipse_10377" data-name="Elipse 10377" cx="4.836" cy="4.836" r="4.836" transform="translate(36.051 244.215)" fill="#3f3d56"/>
  <path id="Trazado_85492" data-name="Trazado 85492" d="M270.007,713.726s-.691-14.857-14.852-13.13" transform="translate(-229.121 -443.601)" fill="#3f3d56"/>
</svg>
